<svg width="104" height="112" viewBox="0 0 104 112" fill="none" xmlns="http://www.w3.org/2000/svg">
<g id="password">
<g id="password_2">
<g id="Group">
<g id="Shape 2">
<g id="lock_ok">
<path id="Combined Shape" fill-rule="evenodd" clip-rule="evenodd" d="M52.8119 82.1835C54.8513 81.1529 56.25 79.0361 56.25 76.5921C56.25 73.1353 53.4518 70.333 50 70.333C46.5482 70.333 43.75 73.1353 43.75 76.5921C43.75 79.0361 45.1487 81.1529 47.1881 82.1835C46.9875 83.0078 46.875 83.9334 46.875 84.9116C46.875 88.3608 48.2741 91.1568 50 91.1568C51.7259 91.1568 53.125 88.3608 53.125 84.9116C53.125 83.9334 53.0125 83.0078 52.8119 82.1835Z" fill="#3796F6"/>
<rect id="Rectangle" x="9.08337" y="50.25" width="81.8333" height="61" rx="2.25" stroke="#3796F6" stroke-width="1.5"/>
<ellipse id="Oval" cx="50.0001" cy="26.5832" rx="20.8333" ry="10.4167" stroke="#3796F6" stroke-width="1.5"/>
<path id="Path" d="M29.1667 37V49.5" stroke="#3796F6" stroke-width="1.5"/>
<path id="Path Copy" d="M70.8333 37V49.5" stroke="#3796F6" stroke-width="1.5"/>
</g>
</g>
</g>
</g>
<g id="tick">
<g id="Oval_2" filter="url(#filter0_d)">
<circle cx="79.9908" cy="23.7419" r="19.7419" fill="#2CC197"/>
</g>
<path id="Path 8" d="M73.6038 23.8501L77.7908 28.0969L86.378 19.3872" stroke="white" stroke-width="2"/>
</g>
</g>
<defs>
<filter id="filter0_d" x="56.2489" y="0" width="47.4839" height="47.4839" filterUnits="userSpaceOnUse" color-interpolation-filters="sRGB">
<feFlood flood-opacity="0" result="BackgroundImageFix"/>
<feColorMatrix in="SourceAlpha" type="matrix" values="0 0 0 0 0 0 0 0 0 0 0 0 0 0 0 0 0 0 127 0"/>
<feOffset/>
<feGaussianBlur stdDeviation="2"/>
<feColorMatrix type="matrix" values="0 0 0 0 0.0855127 0 0 0 0 0.588938 0 0 0 0 0.447128 0 0 0 0.25 0"/>
<feBlend mode="normal" in2="BackgroundImageFix" result="effect1_dropShadow"/>
<feBlend mode="normal" in="SourceGraphic" in2="effect1_dropShadow" result="shape"/>
</filter>
</defs>
</svg>
