<svg width="28" height="28" viewBox="0 0 28 28" fill="none" xmlns="http://www.w3.org/2000/svg">
    <path d="M8.80544 25.376C19.3715 25.376 25.1507 16.622 25.1507 9.03069C25.1507 8.78205 25.1507 8.53453 25.1339 8.28813C26.2582 7.47491 27.2287 6.46799 28 5.31453C26.9516 5.77933 25.8394 6.08401 24.7005 6.21837C25.8998 5.50051 26.7973 4.37128 27.2261 3.04093C26.0984 3.71014 24.8647 4.18173 23.5782 4.43533C22.7121 3.51433 21.5666 2.90448 20.3189 2.70013C19.0712 2.49578 17.791 2.70833 16.6763 3.30489C15.5616 3.90145 14.6746 4.84876 14.1525 6.00023C13.6305 7.1517 13.5025 8.44314 13.7883 9.67469C11.5044 9.56012 9.27005 8.96656 7.23036 7.93253C5.19068 6.89851 3.39122 5.44713 1.9488 3.67261C1.21418 4.93727 0.989184 6.43437 1.31962 7.8591C1.65005 9.28383 2.51107 10.5291 3.72736 11.3412C2.8131 11.3145 1.91876 11.0678 1.12 10.6222V10.695C1.12036 12.0213 1.57949 13.3067 2.41952 14.3331C3.25954 15.3595 4.42874 16.0637 5.7288 16.3264C4.88306 16.5571 3.99569 16.5908 3.13488 16.4249C3.50212 17.5663 4.21683 18.5644 5.17911 19.2797C6.14139 19.995 7.30313 20.3917 8.50192 20.4144C7.31084 21.3506 5.94687 22.0428 4.48802 22.4514C3.02917 22.8599 1.50408 22.9769 0 22.7955C2.62714 24.4813 5.68391 25.3756 8.80544 25.3715"
          fill="#204569"/>
</svg>
