<svg viewBox="0 0 7 12" width="7px" height="12px" fill="#747C89" xmlns="http://www.w3.org/2000/svg">
    <path d="M 0.228 3.906 C 0.532 4.198 1.023 4.198 1.327 3.906 L 3.5 1.811 L 5.673 3.906 C 5.977 4.198 6.468 4.198 6.772 3.906 C 7.076 3.613 7.076 3.138 6.772 2.845 L 4.05 0.22 C 3.746 -0.073 3.254 -0.073 2.95 0.22 L 0.228 2.845 C -0.076 3.138 -0.076 3.613 0.228 3.906 Z"></path>
    <path d="M 0.228 8.095 C 0.532 7.802 1.023 7.802 1.327 8.095 L 3.5 10.19 L 5.673 8.095 C 5.977 7.802 6.468 7.802 6.772 8.095 C 7.076 8.388 7.076 8.863 6.772 9.156 L 4.05 11.78 C 3.746 12.073 3.254 12.073 2.95 11.78 L 0.228 9.156 C -0.076 8.863 -0.076 8.388 0.228 8.095 Z"></path>
</svg>